<?xml version="1.0" encoding="UTF-8"?><svg id="a" xmlns="http://www.w3.org/2000/svg" xmlns:xlink="http://www.w3.org/1999/xlink" viewBox="0 0 1501 317.6"><defs><linearGradient id="b" x1="17.6" y1="13.9" x2="307.3" y2="303.6" gradientUnits="userSpaceOnUse"><stop offset="0" stop-color="#9de359"/><stop offset="1" stop-color="#00d9a7"/></linearGradient><linearGradient id="c" x1="587.4" y1="194.8" x2="621.3" y2="228.7" gradientUnits="userSpaceOnUse"><stop offset="0" stop-color="#0259cc"/><stop offset="1" stop-color="#01b4f8"/></linearGradient><linearGradient id="d" x1="838.8" y1="194.8" x2="872.7" y2="228.7" gradientUnits="userSpaceOnUse"><stop offset="0" stop-color="#0440de"/><stop offset="1" stop-color="#253992"/></linearGradient><linearGradient id="e" x1="774.6" y1="195.4" x2="808.5" y2="229.3" gradientUnits="userSpaceOnUse"><stop offset="0" stop-color="#e44c8d"/><stop offset="1" stop-color="#fd85f6"/></linearGradient><linearGradient id="f" x1="901.7" y1="194.8" x2="935.6" y2="228.7" gradientUnits="userSpaceOnUse"><stop offset="0" stop-color="#5c7395"/><stop offset="1" stop-color="#37465d"/></linearGradient><linearGradient id="g" x1="964.6" y1="194.8" x2="998.5" y2="228.7" gradientUnits="userSpaceOnUse"><stop offset="0" stop-color="#05a0c8"/><stop offset=".3" stop-color="#1083af"/><stop offset="1" stop-color="#2d3c73"/></linearGradient><linearGradient id="h" x1="713.1" y1="194.8" x2="747" y2="228.7" gradientUnits="userSpaceOnUse"><stop offset="0" stop-color="#ec5d66"/><stop offset="1" stop-color="#f0363b"/></linearGradient><linearGradient id="i" x1="650.2" y1="194.8" x2="684.2" y2="228.7" gradientUnits="userSpaceOnUse"><stop offset="0" stop-color="#e40b30"/><stop offset="1" stop-color="#ed7052"/></linearGradient><linearGradient id="j" x1="1090.3" y1="194.8" x2="1124.2" y2="228.7" gradientUnits="userSpaceOnUse"><stop offset="0" stop-color="#ffd711"/><stop offset="1" stop-color="#ffaf90"/></linearGradient><linearGradient id="l" x1="1027.4" y1="194.8" x2="1061.3" y2="228.7" gradientUnits="userSpaceOnUse"><stop offset="0" stop-color="#1ad342"/><stop offset=".9" stop-color="#24b45a"/></linearGradient><linearGradient id="m" x1="525.9" y1="194.8" x2="559.8" y2="228.7" gradientUnits="userSpaceOnUse"><stop offset="0" stop-color="#e73869"/><stop offset="1" stop-color="#fea315"/></linearGradient><linearGradient id="n" x1="1347.8" y1="195" x2="1382.3" y2="229.6" gradientUnits="userSpaceOnUse"><stop offset="0" stop-color="#0192f7"/><stop offset="1" stop-color="#00379c"/></linearGradient><linearGradient id="p" x1="1220.1" y1="195" x2="1254.6" y2="229.6" gradientUnits="userSpaceOnUse"><stop offset="0" stop-color="#07a7e1"/><stop offset=".3" stop-color="#1e8aca"/><stop offset="1" stop-color="#564595"/></linearGradient><linearGradient id="q" x1="1153.1" y1="195" x2="1187.7" y2="229.6" gradientUnits="userSpaceOnUse"><stop offset="0" stop-color="#1e75ce"/><stop offset="1" stop-color="#ff0084"/></linearGradient><linearGradient id="r" x1="1283.8" y1="193.5" x2="1318.4" y2="228" gradientUnits="userSpaceOnUse"><stop offset="0" stop-color="#ffb50e"/><stop offset="1" stop-color="#ff5a22"/></linearGradient></defs><g><rect x="4" y="1.5" width="317" height="314.6" rx="44.5" ry="44.5" style="fill:url(#b);"/><path d="M161.9,57.9l58.3,33.6v-24.6l-58.2-33.6L53.5,96v125.3l108.5,62.6c34.9-20.2,69.9-40.3,104.8-60.5l3.7-2.1v-28.7l-21.3-6v22.4l-87.2,50.3-87.2-50.3V108.2l87.2-50.4Z" style="fill:#fff; fill-rule:evenodd;"/><path d="M220.2,125v-24.6l-58.3-33.6-79.5,45.9v91.8l79.5,45.9,79.5-45.9-.8-10.5-20.4-11.8v10l-58.2,33.6-58.2-33.6V125l58.2-33.6,58.2,33.6Z" style="fill:#fff; fill-rule:evenodd;"/><polygon points="162 115.1 162 139.7 270.4 202.3 270.4 177.8 162 115.1" style="fill:#fff; fill-rule:evenodd;"/></g><line x1="425.5" y1="49.7" x2="425.5" y2="278.8" style="fill:#fff; stroke:#fff; stroke-miterlimit:10; stroke-width:2px;"/><g><path d="M571.1,166.1c-6.8,0-13.1-1.1-18.8-3.2-5.7-2.1-10.7-5.1-14.9-9.1-4.2-3.9-7.5-8.6-9.8-13.9-2.3-5.4-3.5-11.3-3.5-17.8s1.2-12.4,3.5-17.8c2.3-5.4,5.6-10,9.9-13.9,4.2-3.9,9.3-6.9,15.1-9.1,5.8-2.1,12.2-3.2,19.2-3.2s15.8,1.4,22.3,4.2c6.5,2.8,11.9,6.8,16.2,12l-18.1,16c-2.6-3-5.5-5.3-8.6-6.9-3.1-1.6-6.5-2.3-10.3-2.3s-5.9,.5-8.5,1.4c-2.5,1-4.7,2.4-6.4,4.2-1.8,1.8-3.1,4-4.1,6.6-1,2.6-1.4,5.5-1.4,8.8s.5,6,1.4,8.6c1,2.6,2.3,4.8,4.1,6.7,1.8,1.8,3.9,3.3,6.3,4.3,2.4,1,5.2,1.5,8.2,1.5s6.3-.5,9.4-1.6c3-1.1,6.3-2.9,9.7-5.6l15.9,19.5c-5.1,3.4-11,6.1-17.5,7.9-6.6,1.8-12.9,2.8-19.1,2.8Zm36.6-10.7l-24.6-3.6v-32h24.6v35.6Z" style="fill:#fff;"/><path d="M655.9,164.2V80.1h39.3c12.9,0,22.7,2.8,29.4,8.5,6.7,5.7,10.1,13.4,10.1,23.2s-1.6,12.1-4.7,16.8c-3.1,4.7-7.6,8.3-13.3,10.8-5.7,2.5-12.5,3.7-20.4,3.7h-24.7l12.6-11.7v32.8h-28.4Zm28.4-29.7l-12.6-12.9h22.9c3.9,0,6.8-.9,8.7-2.6,1.9-1.8,2.8-4.2,2.8-7.2s-.9-5.4-2.8-7.2c-1.9-1.8-4.8-2.6-8.7-2.6h-22.9l12.6-12.9v45.4Zm22,29.7l-20.7-30.6h30l20.9,30.6h-30.3Z" style="fill:#fff;"/><path d="M772.3,164.2l36.8-84.1h27.9l36.8,84.1h-29.3l-27.2-70.6h11.1l-27.2,70.6h-28.8Zm21.9-14.7l7.2-20.4h38.7l7.2,20.4h-53.1Z" style="fill:#fff;"/><path d="M914.3,164.2V80.1h28.4v62.1h38v22h-66.3Z" style="fill:#fff;"/><path d="M1016.5,164.2l36.8-84.1h27.9l36.8,84.1h-29.3l-27.2-70.6h11.1l-27.2,70.6h-28.8Zm21.9-14.7l7.2-20.4h38.7l7.2,20.4h-53.1Z" style="fill:#fff;"/><path d="M1158.5,164.2V80.1h44.9c11.6,0,20.2,2.1,25.7,6.2,5.5,4.1,8.3,9.4,8.3,15.8s-1.2,8-3.5,11.4c-2.4,3.3-5.8,5.9-10.3,7.9-4.5,1.9-10,2.9-16.6,2.9l2.4-6.5c6.6,0,12.2,.9,17,2.8,4.8,1.8,8.4,4.5,11.1,8,2.6,3.5,3.9,7.7,3.9,12.6,0,7.3-3,13-9.1,17.1-6,4.1-14.9,6.1-26.5,6.1h-47.3Zm27.9-19.8h17.1c3.1,0,5.5-.6,7-1.7,1.6-1.1,2.3-2.8,2.3-4.9s-.8-3.8-2.3-4.9c-1.6-1.1-3.9-1.7-7-1.7h-19v-18.7h15.1c3.2,0,5.5-.5,7-1.6,1.5-1.1,2.2-2.6,2.2-4.6s-.7-3.6-2.2-4.7c-1.5-1-3.8-1.6-7-1.6h-13.2v44.5Z" style="fill:#fff;"/></g><g><g><rect x="585.5" y="192.9" width="37.6" height="37.6" rx="6.3" ry="6.3" style="fill:url(#c);"/><g><path d="M591,221.8v-18.4h6.2v13.6h8.3v4.8h-14.5Z" style="fill:#fff;"/><path d="M606.1,221.8v-4.7h1.8v1.3l-.4-.4c.2-.4,.4-.6,.7-.8,.3-.2,.6-.3,1-.3s.8,.1,1.1,.3,.5,.6,.6,1h-.6c.2-.5,.4-.8,.8-1,.3-.2,.7-.3,1.1-.3s.7,0,1,.2c.3,.1,.5,.4,.7,.7,.2,.3,.2,.7,.2,1.2v2.7h-1.9v-2.3c0-.3,0-.5-.1-.6,0-.1-.2-.2-.4-.2s-.2,0-.3,0c0,0-.2,.1-.2,.3,0,.1,0,.3,0,.5v2.3h-1.9v-2.3c0-.3,0-.5-.1-.6,0-.1-.2-.2-.4-.2s-.2,0-.3,0c0,0-.2,.1-.2,.3,0,.1,0,.3,0,.5v2.3h-1.9Z" style="fill:#fff;"/><path d="M616.9,221.9c-.4,0-.8,0-1.2-.1-.4,0-.7-.2-.9-.3l.5-1.3c.2,.1,.5,.2,.8,.3,.3,0,.6,.1,.9,.1s.4,0,.5,0c0,0,.1,0,.1-.2s0-.1-.1-.2c0,0-.2,0-.4,0-.2,0-.3,0-.5,0-.2,0-.4,0-.6-.1-.2,0-.4-.1-.5-.2-.2-.1-.3-.2-.4-.4,0-.2-.1-.4-.1-.7s0-.6,.3-.8c.2-.2,.4-.4,.8-.6,.4-.1,.8-.2,1.3-.2s.7,0,1,0c.3,0,.6,.2,.9,.3l-.5,1.3c-.2-.1-.5-.2-.7-.3-.2,0-.4,0-.6,0s-.4,0-.5,0c0,0-.1,0-.1,.2s0,.1,.1,.2c0,0,.2,0,.4,0,.2,0,.3,0,.5,0,.2,0,.4,0,.6,.1,.2,0,.4,.1,.5,.2,.2,.1,.3,.2,.4,.4,0,.2,.1,.4,.1,.7s0,.5-.3,.8c-.2,.2-.4,.4-.8,.6-.4,.1-.8,.2-1.4,.2Z" style="fill:#fff;"/></g></g><g><rect x="837" y="192.9" width="37.6" height="37.6" rx="6.3" ry="6.3" style="fill:url(#d);"/><g><path d="M846.3,220.2v-13.8h7.4c1.9,0,3.3,.3,4.2,1,.9,.7,1.4,1.5,1.4,2.6s-.2,1.3-.6,1.9c-.4,.5-1,1-1.7,1.3-.7,.3-1.6,.5-2.7,.5l.4-1.1c1.1,0,2,.2,2.8,.5,.8,.3,1.4,.7,1.8,1.3,.4,.6,.6,1.3,.6,2.1,0,1.2-.5,2.1-1.5,2.8-1,.7-2.4,1-4.4,1h-7.8Zm4.6-3.3h2.8c.5,0,.9,0,1.2-.3,.3-.2,.4-.5,.4-.8s-.1-.6-.4-.8c-.3-.2-.6-.3-1.2-.3h-3.1v-3.1h2.5c.5,0,.9,0,1.2-.3,.2-.2,.4-.4,.4-.8s-.1-.6-.4-.8c-.2-.2-.6-.3-1.2-.3h-2.2v7.3Z" style="fill:#fff;"/><path d="M861.5,220.2v-13.8h4.7v13.8h-4.7Z" style="fill:#fff;"/></g></g><g><rect x="772.8" y="193.6" width="37.6" height="37.6" rx="6.3" ry="6.3" style="fill:url(#e);"/><path d="M786.9,215.1v-6.4h19.1v6.4h-19.1Zm6.2,6v-18.3h6.7v18.3h-6.7Z" style="fill:#fff;"/></g><g><rect x="899.8" y="192.9" width="37.6" height="37.6" rx="6.3" ry="6.3" style="fill:url(#f);"/><text transform="translate(910.4 219.5)" style="fill:#fff; font-family:Montserrat-Black, Montserrat; font-size:18.8px; font-weight:800;"><tspan x="0" y="0">Fl</tspan></text></g><g><rect x="962.7" y="192.9" width="37.6" height="37.6" rx="6.3" ry="6.3" style="fill:url(#g);"/><path d="M972.4,212.3c-.5,.1-.9,.5-.9,1.1s0,.5,.2,.7l-.5,2.7c0,.1,0,.2,0,.3,0,0,.2,.1,.3,.1h1.9c.1,0,.2,0,.3-.1,0,0,.1-.2,0-.3l-.4-2.8c.1-.2,.2-.4,.2-.6,0-.4-.2-.7-.5-.9v-1.5l2.5,1.1v6.1c0,.8,.6,1.4,1.4,1.4h11.3c.8,0,1.4-.6,1.4-1.4v-6.5l5.9-2.5c.2,0,.2-.2,.2-.4,0-.2-.1-.3-.3-.4l-13.4-4.6c0,0-.2,0-.3,0-4.6,1.7-12.1,4.5-12.8,4.5-.2,0-.3,.1-.4,.3,0,.2,0,.4,.2,.4l3.5,1.5v1.7Zm-.2,4.1l.4-2.4c0-.1,0-.3-.1-.4,0,0-.1-.1-.1-.2,0-.2,.1-.3,.3-.3s.3,.1,.3,.3,0,.2,0,.2c0,0-.1,.2,0,.3l.3,2.5h-.9Zm16.7,1.8c0,.3-.3,.6-.6,.6h-11.3c-.3,0-.6-.3-.6-.6v-5.8l5.6,2.4c0,0,.1,0,.2,0s.1,0,.2,0l6.5-2.8v6.1Zm-18.6-9.3c2.9-.9,9.8-3.5,11.7-4.2l12.2,4.2-12,5.2-7.9-3.4,6.7-.9c.3,.2,.7,.3,1.2,.3,.9,0,1.6-.4,1.6-.9s-.7-.9-1.6-.9-1.4,.3-1.6,.7l-7.8,1-2.6-1.1Zm10.7,.3c0-.2,.5-.5,1.2-.5s1.2,.3,1.2,.5-.5,.5-1.2,.5-1.2-.3-1.2-.5Z" style="fill:#fff;"/></g><g><rect x="711.3" y="192.9" width="37.6" height="37.6" rx="6.3" ry="6.3" style="fill:url(#h);"/><g><path d="M719,217.2v-10.8h3.6v10.8h-3.6Zm3.4-4v-3h3.8v3h-3.8Zm3.6,4v-10.8h3.6v10.8h-3.6Z" style="fill:#fff;"/><path d="M731.4,217.2v-10.8h5c1.6,0,2.9,.4,3.8,1.1,.9,.7,1.3,1.7,1.3,3s-.2,1.5-.6,2.1-1,1.1-1.7,1.4c-.7,.3-1.6,.5-2.6,.5h-3.2l1.6-1.5v4.2h-3.6Zm3.6-3.8l-1.6-1.6h2.9c.5,0,.9-.1,1.1-.3,.2-.2,.4-.5,.4-.9s-.1-.7-.4-.9c-.2-.2-.6-.3-1.1-.3h-2.9l1.6-1.6v5.8Zm2.8,3.8l-2.6-3.9h3.8l2.7,3.9h-3.9Z" style="fill:#fff;"/></g></g><g><rect x="648.4" y="192.9" width="37.6" height="37.6" rx="6.3" ry="6.3" style="fill:url(#i);"/><path d="M667.8,224.9c-2.1,0-4.1-.3-5.9-1-1.8-.7-3.3-1.6-4.7-2.8-1.3-1.2-2.3-2.7-3.1-4.4-.7-1.7-1.1-3.5-1.1-5.6s.4-3.9,1.1-5.6c.7-1.7,1.8-3.1,3.1-4.4,1.3-1.2,2.9-2.2,4.7-2.8,1.8-.7,3.7-1,5.9-1s4.9,.5,6.9,1.4c2,.9,3.6,2.2,4.9,3.9l-5.6,5c-.8-1-1.6-1.7-2.6-2.3-.9-.5-2-.8-3.2-.8s-1.8,.2-2.5,.5c-.8,.3-1.4,.7-1.9,1.3-.5,.6-1,1.3-1.3,2.1-.3,.8-.5,1.7-.5,2.7s.2,1.9,.5,2.7c.3,.8,.7,1.5,1.3,2.1,.5,.6,1.2,1,1.9,1.3,.8,.3,1.6,.5,2.5,.5s2.2-.3,3.2-.8c.9-.5,1.8-1.3,2.6-2.3l5.6,5c-1.3,1.7-3,3-4.9,3.9-2,.9-4.3,1.4-6.9,1.4Z" style="fill:#fff;"/></g><g><rect x="1088.4" y="192.9" width="37.6" height="37.6" rx="6.3" ry="6.3" style="fill:url(#j);"/><g id="k"><g><path d="M1107.7,226.6c-3.6,0-7-1.4-9.5-3.9-2.6-2.5-3.9-5.9-3.9-9.4s1.4-6.9,3.9-9.4c2.6-2.5,5.9-3.9,9.5-3.9s7,1.4,9.5,3.9c2.6,2.5,3.9,5.9,3.9,9.4s-1.4,6.9-3.9,9.4c-2.6,2.5-5.9,3.9-9.5,3.9Zm0-25.5c-6.8,0-12.3,5.5-12.3,12.2s5.5,12.2,12.3,12.2,12.3-5.5,12.3-12.2-5.5-12.2-12.3-12.2Z" style="fill:#fff;"/><path d="M1113.4,219.2h-10.6c-.3,0-.6-.3-.6-.6v-2.7c0-2.1,1.7-3.9,3.9-3.9h4c2.2,0,3.9,1.7,3.9,3.9v2.7c0,.3-.3,.6-.6,.6Zm-10.1-1.1h9.6v-2.2c0-1.5-1.3-2.7-2.8-2.7h-4c-1.5,0-2.8,1.2-2.8,2.7v2.2Z" style="fill:#fff;"/><path d="M1108,211.7c-1.8,0-3.4-1.5-3.4-3.3s1.5-3.3,3.4-3.3,3.4,1.5,3.4,3.3-1.5,3.3-3.4,3.3Zm0-5.5c-1.2,0-2.2,1-2.2,2.2s1,2.2,2.2,2.2,2.2-1,2.2-2.2-1-2.2-2.2-2.2Z" style="fill:#fff;"/><path d="M1107.7,204.4c-.3,0-.6-.3-.6-.6v-3.3c0-.3,.3-.6,.6-.6s.6,.3,.6,.6v3.3c0,.3-.3,.6-.6,.6Z" style="fill:#fff;"/><path d="M1107.7,226.6c-.3,0-.6-.3-.6-.6v-3.3c0-.3,.3-.6,.6-.6s.6,.3,.6,.6v3.3c0,.3-.3,.6-.6,.6Z" style="fill:#fff;"/><path d="M1120.7,213.8h-3.4c-.3,0-.6-.3-.6-.6s.3-.6,.6-.6h3.4c.3,0,.6,.3,.6,.6,0,.3-.3,.6-.6,.6Z" style="fill:#fff;"/><path d="M1098.2,213.8h-3.4c-.3,0-.6-.3-.6-.6s.3-.6,.6-.6h3.4c.3,0,.6,.3,.6,.6,0,.3-.3,.6-.6,.6Z" style="fill:#fff;"/><rect x="1097.1" y="209.4" width="1.7" height="1.7" style="fill:#fff;"/><rect x="1100.5" y="209.4" width="1.7" height="1.7" style="fill:#fff;"/><rect x="1113.4" y="209.4" width="1.7" height="1.7" style="fill:#fff;"/><rect x="1116.7" y="209.4" width="1.7" height="1.7" style="fill:#fff;"/><rect x="1097.1" y="215.5" width="1.7" height="1.7" style="fill:#fff;"/><rect x="1116.7" y="215.5" width="1.7" height="1.7" style="fill:#fff;"/></g></g></g><g><rect x="1025.6" y="192.9" width="37.6" height="37.6" rx="6.3" ry="6.3" style="fill:url(#l);"/><g><path d="M1033.6,220.2v-15.6h5.3v15.6h-5.3Z" style="fill:#fff;"/><path d="M1041.4,220.2v-15.6h4.3l8,9.5h-2v-9.5h5.1v15.6h-4.3l-8-9.5h2v9.5h-5.1Z" style="fill:#fff;"/></g></g><g><rect x="524" y="192.9" width="37.6" height="37.6" rx="6.3" ry="6.3" style="fill:url(#m);"/><path d="M532.2,224.3v-24.1h19.6v6.1h-11.6v11.9h12.1v6.1h-20.1Zm7.4-9.3v-5.9h10.8v5.9h-10.8Z" style="fill:#fff;"/></g><g><rect x="1345.9" y="193.2" width="38.2" height="38.2" rx="6.3" ry="6.3" style="fill:url(#n);"/><g id="o"><g><path d="M1368,213.3c-.2,0-.3-.1-.3-.3s.1-.3,.3-.3c1.3,0,1.7-1.1,1.7-2.1s-.1-.8-.3-1.1c0,0,0-.2,0-.2,0-.2,0-.3,0-.5,0-.9-.8-1.7-1.7-1.7s-1,.2-1.3,.6c0,0-.2,.1-.3,0,0,0-.2,0-.2-.1-.5-.8-1.4-1.4-2.4-1.4-1.5,0-2.7,1.1-2.7,2.6s0,.2,0,.2c0,0,0,.2,0,.2-.3,.4-.5,.9-.5,1.4,0,1,.5,2.1,1.7,2.1s.3,.1,.3,.3-.1,.3-.3,.3c-1.4,0-2.3-1.1-2.3-2.7s.2-1.2,.6-1.7v-.2c0-1.7,1.5-3.1,3.3-3.1s2.1,.5,2.7,1.4c.4-.3,.9-.5,1.4-.5,1.3,0,2.3,1,2.3,2.3s0,.4,0,.5c.2,.4,.3,.9,.3,1.3,0,1.6-.9,2.7-2.3,2.7Z" style="fill:#fff;"/><path d="M1365.1,215.8c-.4,0-.8-.4-1.1-1-.2-.6-.3-1.4-.3-2.2s.1-1.6,.3-2.2c.3-.7,.6-1,1.1-1s.8,.4,1.1,1c.2,.6,.3,1.4,.3,2.2s-.1,1.6-.3,2.2c-.3,.7-.6,1-1.1,1Zm0-5.9c-.1,0-.3,.2-.6,.7-.2,.5-.3,1.2-.3,2s.1,1.5,.3,2c.2,.5,.4,.7,.6,.7s.3-.2,.6-.7c.2-.5,.3-1.2,.3-2s-.1-1.5-.3-2c-.2-.5-.4-.7-.6-.7Z" style="fill:#fff;"/><path d="M1368,213h-2.9c-.2,0-.3-.1-.3-.3v-3.1c0,0,0-.2,0-.2,0,0,.1,0,.2,0,1.8,0,3.1,1.5,3.1,3.3v.2c0,.1-.1,.2-.3,.2Zm-2.6-.6h2.3c0-1.3-1-2.3-2.3-2.5v2.5Z" style="fill:#fff;"/><path d="M1365.1,213h-3.1c-.2,0-.3-.1-.3-.3v-.2c0-1.8,1.5-3.3,3.3-3.3h.2c.2,0,.3,.1,.3,.3v3.1c0,.2-.2,.3-.3,.3Zm-2.9-.6h2.6v-2.5c-1.4,0-2.5,1.2-2.6,2.5Z" style="fill:#fff;"/><path d="M1365.1,215.8c0,0-.1,0-.2,0,0,0,0-.1,0-.2v-2.8c0-.2,.1-.3,.3-.3h2.9c0,0,.2,0,.2,0,0,0,0,.1,0,.2,0,.8-.4,1.6-1,2.2-.6,.6-1.4,.9-2.2,1h0Zm.3-2.8v2.2c1.2-.2,2.1-1.1,2.3-2.2h-2.3Z" style="fill:#fff;"/><path d="M1365,215.8c-1.8,0-3.2-1.4-3.3-3.1,0,0,0-.2,0-.2,0,0,.1,0,.2,0h3.1c.2,0,.3,.1,.3,.3v2.8c0,.2-.1,.3-.3,.3h-.1Zm-2.7-2.8c.2,1.2,1.3,2.2,2.5,2.3v-2.3h-2.5Z" style="fill:#fff;"/><path d="M1363.4,219.2h-4.9c-.2,0-.3-.1-.3-.3s.1-.3,.3-.3h4.6v-1.7c0-.2,.1-.3,.3-.3s.3,.1,.3,.3v2c0,.2-.2,.3-.3,.3Z" style="fill:#fff;"/><path d="M1371.8,219.2h-4.9c-.2,0-.3-.1-.3-.3v-2c0-.2,.1-.3,.3-.3s.3,.1,.3,.3v1.7h4.6c.2,0,.3,.1,.3,.3s-.2,.3-.3,.3Z" style="fill:#fff;"/><path d="M1364.6,219.2c-.2,0-.3-.1-.3-.3v-2c0-.2,.1-.3,.3-.3s.3,.1,.3,.3v2c0,.2-.1,.3-.3,.3Z" style="fill:#fff;"/><path d="M1365.7,219.2c-.2,0-.3-.1-.3-.3v-2c0-.2,.1-.3,.3-.3s.3,.1,.3,.3v2c0,.2-.1,.3-.3,.3Z" style="fill:#fff;"/><rect x="1359.4" y="216.7" width=".6" height=".6" style="fill:#fff;"/><rect x="1360.6" y="216.7" width=".6" height=".6" style="fill:#fff;"/><rect x="1361.7" y="216.7" width=".6" height=".6" style="fill:#fff;"/><rect x="1368" y="216.7" width=".6" height=".6" style="fill:#fff;"/><rect x="1369.2" y="216.7" width=".6" height=".6" style="fill:#fff;"/><rect x="1370.3" y="216.7" width=".6" height=".6" style="fill:#fff;"/></g></g></g><g><rect x="1218.2" y="193.2" width="38.2" height="38.2" rx="6.3" ry="6.3" style="fill:url(#p);"/><g><path d="M1223.7,214c-.4,0-.7,0-1-.1-.3,0-.6-.2-.8-.3l.5-1.1c.2,.1,.4,.2,.7,.3,.3,0,.5,.1,.7,.1s.2,0,.3,0c0,0,.1,0,.2,0,0,0,0,0,0-.1,0,0,0-.1-.1-.2,0,0-.2,0-.3-.1-.1,0-.3,0-.5,0-.2,0-.3,0-.5-.1-.2,0-.3-.1-.5-.2-.1,0-.3-.2-.3-.4,0-.2-.1-.3-.1-.6s0-.5,.2-.7c.1-.2,.4-.4,.7-.5,.3-.1,.7-.2,1.1-.2s.6,0,.9,0c.3,0,.5,.2,.8,.3l-.4,1c-.2-.1-.4-.2-.6-.2-.2,0-.4,0-.6,0s-.2,0-.3,0c0,0-.1,0-.2,0,0,0,0,0,0,.1,0,0,0,.1,.1,.2,0,0,.2,0,.3,.1,.1,0,.3,0,.5,0,.2,0,.3,0,.5,.1,.2,0,.3,.1,.5,.2,.1,0,.3,.2,.3,.4,0,.2,.1,.3,.1,.6s0,.5-.2,.7c-.1,.2-.4,.4-.7,.5-.3,.1-.7,.2-1.1,.2Z" style="fill:#fff;"/><path d="M1227,213.9v-3.2h-1.3v-1.1h3.9v1.1h-1.3v3.2h-1.4Z" style="fill:#fff;"/><path d="M1229.4,213.9l1.9-4.3h1.4l1.9,4.3h-1.5l-1.4-3.6h.6l-1.4,3.6h-1.5Zm1.1-.7l.4-1h2l.4,1h-2.7Z" style="fill:#fff;"/><path d="M1234.8,213.9v-4.3h3.5v1.1h-2v3.2h-1.4Zm1.3-1.4v-1.1h1.9v1.1h-1.9Z" style="fill:#fff;"/><path d="M1238.7,213.9v-4.3h3.5v1.1h-2v3.2h-1.4Zm1.3-1.4v-1.1h1.9v1.1h-1.9Z" style="fill:#fff;"/><path d="M1242.6,213.9v-4.3h1.4v4.3h-1.4Z" style="fill:#fff;"/><path d="M1244.8,213.9v-4.3h1.2l2.2,2.6h-.5v-2.6h1.4v4.3h-1.2l-2.2-2.6h.5v2.6h-1.4Z" style="fill:#fff;"/><path d="M1251.9,214c-.3,0-.7,0-1-.2-.3-.1-.5-.3-.8-.5-.2-.2-.4-.4-.5-.7-.1-.3-.2-.6-.2-.9s0-.6,.2-.9c.1-.3,.3-.5,.5-.7,.2-.2,.5-.4,.8-.5,.3-.1,.6-.2,1-.2s.8,0,1.1,.2c.3,.1,.6,.3,.8,.6l-.9,.8c-.1-.2-.3-.3-.4-.4-.2,0-.3-.1-.5-.1s-.3,0-.4,0c-.1,0-.2,.1-.3,.2,0,0-.2,.2-.2,.3,0,.1,0,.3,0,.4s0,.3,0,.4c0,.1,.1,.2,.2,.3,0,0,.2,.2,.3,.2,.1,0,.3,0,.4,0s.3,0,.5,0c.2,0,.3-.1,.5-.3l.8,1c-.3,.2-.6,.3-.9,.4-.3,0-.7,.1-1,.1Zm1.9-.5l-1.3-.2v-1.6h1.3v1.8Z" style="fill:#fff;"/></g></g><g><rect x="1151.3" y="193.2" width="38.2" height="38.2" rx="6.3" ry="6.3" style="fill:url(#q);"/><path d="M1163.3,226c-2.7,0-4.9-2.1-4.9-4.8s0-.4,0-.6c.3-2.3,2.3-4.1,4.8-4.1s3.6,1.1,4.4,2.8c.3,.6,.4,1.3,.4,2,0,2.6-2.2,4.8-4.8,4.8Zm15.3-16.9c-2.7,0-4.8-2.1-4.8-4.8s.2-1.4,.4-2c.8-1.7,2.5-2.8,4.4-2.8s4.6,1.9,4.8,4.4c0,.1,0,.3,0,.4,0,2.6-2.2,4.8-4.8,4.8Z" style="fill:#f6f6f6;"/></g><g><rect x="1282" y="191.6" width="38.2" height="38.2" rx="6.3" ry="6.3" style="fill:url(#r);"/><g><path d="M1288.6,217v-11.4h5.5c1.1,0,2,.2,2.8,.5,.8,.3,1.4,.8,1.8,1.5,.4,.6,.6,1.4,.6,2.3s-.2,1.6-.6,2.3c-.4,.6-1,1.1-1.8,1.5-.8,.4-1.7,.5-2.8,.5h-3.4l1.7-1.6v4.5h-3.9Zm3.9-4l-1.7-1.7h3.1c.5,0,.9-.1,1.2-.4,.3-.2,.4-.6,.4-1s-.1-.7-.4-1c-.3-.2-.7-.4-1.2-.4h-3.1l1.7-1.7v6.2Z" style="fill:#fff;"/><path d="M1301.9,217.1c-.6,0-1.1-.2-1.5-.6-.4-.4-.6-.9-.6-1.5s.2-1.1,.6-1.5c.4-.4,.9-.6,1.5-.6s1.1,.2,1.5,.6c.4,.4,.6,.9,.6,1.5s-.2,1.1-.6,1.5c-.4,.4-.9,.6-1.5,.6Z" style="fill:#fff;"/><path d="M1305.3,217v-11.4h9.3v2.9h-5.5v5.6h5.7v2.9h-9.5Zm3.5-4.4v-2.8h5.1v2.8h-5.1Z" style="fill:#fff;"/></g></g></g></svg>