<?xml version="1.0" encoding="UTF-8"?><svg id="a" xmlns="http://www.w3.org/2000/svg" xmlns:xlink="http://www.w3.org/1999/xlink" viewBox="0 0 462.2 383.7"><defs><linearGradient id="b" x1="150.1" y1="53.8" x2="309.2" y2="212.9" gradientUnits="userSpaceOnUse"><stop offset="0" stop-color="#9de359"/><stop offset="1" stop-color="#00d9a7"/></linearGradient><linearGradient id="c" x1="49" y1="310.3" x2="64.6" y2="325.9" gradientUnits="userSpaceOnUse"><stop offset="0" stop-color="#0259cc"/><stop offset="1" stop-color="#01b4f8"/></linearGradient><linearGradient id="d" x1="178" y1="310.3" x2="193.5" y2="325.9" gradientUnits="userSpaceOnUse"><stop offset="0" stop-color="#0440de"/><stop offset="1" stop-color="#253992"/></linearGradient><linearGradient id="e" x1="145" y1="310.7" x2="160.6" y2="326.2" gradientUnits="userSpaceOnUse"><stop offset="0" stop-color="#e44c8d"/><stop offset="1" stop-color="#fd85f6"/></linearGradient><linearGradient id="f" x1="210.2" y1="310.3" x2="225.8" y2="325.9" gradientUnits="userSpaceOnUse"><stop offset="0" stop-color="#5c7395"/><stop offset="1" stop-color="#37465d"/></linearGradient><linearGradient id="g" x1="242.4" y1="310.3" x2="258" y2="325.9" gradientUnits="userSpaceOnUse"><stop offset="0" stop-color="#05a0c8"/><stop offset=".3" stop-color="#1083af"/><stop offset="1" stop-color="#2d3c73"/></linearGradient><linearGradient id="h" x1="113.5" y1="310.3" x2="129.1" y2="325.9" gradientUnits="userSpaceOnUse"><stop offset="0" stop-color="#ec5d66"/><stop offset="1" stop-color="#f0363b"/></linearGradient><linearGradient id="i" x1="81.3" y1="310.3" x2="96.9" y2="325.9" gradientUnits="userSpaceOnUse"><stop offset="0" stop-color="#e40b30"/><stop offset="1" stop-color="#ed7052"/></linearGradient><linearGradient id="j" x1="306.9" y1="310.3" x2="322.4" y2="325.9" gradientUnits="userSpaceOnUse"><stop offset="0" stop-color="#ffd711"/><stop offset="1" stop-color="#ffaf90"/></linearGradient><linearGradient id="l" x1="274.6" y1="310.3" x2="290.2" y2="325.9" gradientUnits="userSpaceOnUse"><stop offset="0" stop-color="#1ad342"/><stop offset=".9" stop-color="#24b45a"/></linearGradient><linearGradient id="m" x1="17.5" y1="310.3" x2="33.1" y2="325.9" gradientUnits="userSpaceOnUse"><stop offset="0" stop-color="#e73869"/><stop offset="1" stop-color="#fea315"/></linearGradient><linearGradient id="n" x1="438.9" y1="310.5" x2="454.7" y2="326.4" gradientUnits="userSpaceOnUse"><stop offset="0" stop-color="#0192f7"/><stop offset="1" stop-color="#00379c"/></linearGradient><linearGradient id="p" x1="373.4" y1="310.5" x2="389.3" y2="326.4" gradientUnits="userSpaceOnUse"><stop offset="0" stop-color="#07a7e1"/><stop offset=".3" stop-color="#1e8aca"/><stop offset="1" stop-color="#564595"/></linearGradient><linearGradient id="q" x1="339.1" y1="310.5" x2="355" y2="326.4" gradientUnits="userSpaceOnUse"><stop offset="0" stop-color="#1e75ce"/><stop offset="1" stop-color="#ff0084"/></linearGradient><linearGradient id="r" x1="406.1" y1="309.7" x2="422" y2="325.5" gradientUnits="userSpaceOnUse"><stop offset="0" stop-color="#ffb50e"/><stop offset="1" stop-color="#ff5a22"/></linearGradient></defs><g><rect x="144.6" y="49" width="170" height="168.7" rx="17.6" ry="17.6" style="fill:url(#b);"/><path d="M229.4,79.3l31.3,18v-13.2l-31.2-18-58.2,33.6v67.2l58.2,33.6c18.7-10.8,37.5-21.6,56.2-32.4l2-1.1v-15.4l-11.4-3.2v12l-46.8,27-46.8-27v-54l46.8-27Z" style="fill:#fff; fill-rule:evenodd;"/><path d="M260.6,115.2v-13.2l-31.3-18-42.7,24.6v49.2l42.7,24.6,42.7-24.6-.4-5.6-11-6.3v5.4l-31.2,18-31.2-18v-36.1l31.2-18,31.2,18Z" style="fill:#fff; fill-rule:evenodd;"/><polygon points="229.4 110 229.4 123.1 287.6 156.7 287.6 143.6 229.4 110" style="fill:#fff; fill-rule:evenodd;"/></g><g><path d="M76.5,294.7c-3.5,0-6.7-.5-9.6-1.6-2.9-1.1-5.5-2.6-7.6-4.6-2.2-2-3.8-4.4-5-7.1-1.2-2.8-1.8-5.8-1.8-9.1s.6-6.4,1.8-9.1c1.2-2.8,2.9-5.1,5.1-7.1,2.2-2,4.8-3.6,7.7-4.6,3-1.1,6.3-1.6,9.8-1.6s8.1,.7,11.4,2.2c3.3,1.4,6.1,3.5,8.3,6.2l-9.3,8.2c-1.4-1.6-2.8-2.7-4.4-3.5-1.6-.8-3.3-1.2-5.3-1.2s-3,.2-4.3,.7c-1.3,.5-2.4,1.2-3.3,2.2-.9,.9-1.6,2.1-2.1,3.4-.5,1.3-.7,2.8-.7,4.5s.2,3.1,.7,4.4c.5,1.3,1.2,2.5,2.1,3.4,.9,.9,2,1.7,3.2,2.2,1.3,.5,2.7,.8,4.2,.8s3.2-.3,4.8-.8c1.6-.6,3.2-1.5,5-2.9l8.1,10c-2.6,1.8-5.6,3.1-9,4.1-3.4,.9-6.6,1.4-9.8,1.4Zm18.8-5.5l-12.6-1.8v-16.4h12.6v18.2Z" style="fill:#fff;"/><path d="M120,293.7v-43.1h20.1c6.6,0,11.6,1.5,15.1,4.4,3.4,2.9,5.2,6.9,5.2,11.9s-.8,6.2-2.4,8.6c-1.6,2.4-3.9,4.2-6.8,5.5-2.9,1.3-6.4,1.9-10.4,1.9h-12.7l6.5-6v16.8h-14.5Zm14.5-15.2l-6.5-6.6h11.8c2,0,3.5-.5,4.5-1.4,1-.9,1.4-2.1,1.4-3.7s-.5-2.8-1.4-3.7c-1-.9-2.5-1.4-4.5-1.4h-11.8l6.5-6.6v23.3Zm11.3,15.2l-10.6-15.7h15.4l10.7,15.7h-15.5Z" style="fill:#fff;"/><path d="M179.7,293.7l18.8-43.1h14.3l18.8,43.1h-15l-13.9-36.2h5.7l-13.9,36.2h-14.8Zm11.2-7.5l3.7-10.5h19.8l3.7,10.5h-27.2Z" style="fill:#fff;"/><path d="M252.5,293.7v-43.1h14.5v31.8h19.5v11.3h-34Z" style="fill:#fff;"/><path d="M304.9,293.7l18.8-43.1h14.3l18.8,43.1h-15l-13.9-36.2h5.7l-13.9,36.2h-14.8Zm11.2-7.5l3.7-10.5h19.8l3.7,10.5h-27.2Z" style="fill:#fff;"/><path d="M377.7,293.7v-43.1h23c6,0,10.3,1.1,13.2,3.2,2.8,2.1,4.2,4.8,4.2,8.1s-.6,4.1-1.8,5.8c-1.2,1.7-3,3-5.3,4-2.3,1-5.1,1.5-8.5,1.5l1.2-3.3c3.4,0,6.3,.5,8.7,1.4,2.4,.9,4.3,2.3,5.7,4.1,1.3,1.8,2,3.9,2,6.4,0,3.7-1.6,6.7-4.6,8.7-3.1,2.1-7.6,3.1-13.6,3.1h-24.3Zm14.3-10.2h8.7c1.6,0,2.8-.3,3.6-.9,.8-.6,1.2-1.4,1.2-2.5s-.4-1.9-1.2-2.5c-.8-.6-2-.9-3.6-.9h-9.7v-9.6h7.8c1.6,0,2.8-.3,3.6-.8,.8-.6,1.1-1.3,1.1-2.4s-.4-1.9-1.1-2.4c-.8-.5-2-.8-3.6-.8h-6.8v22.8Z" style="fill:#fff;"/></g><g><g><rect x="47.2" y="308.5" width="19.3" height="19.3" rx="6.3" ry="6.3" style="fill:url(#c);"/><g><path d="M50,323.3v-9.4h3.2v7h4.3v2.5h-7.5Z" style="fill:#fff;"/><path d="M57.8,323.3v-2.4h.9v.7l-.2-.2c0-.2,.2-.3,.4-.4,.2,0,.3-.1,.5-.1s.4,0,.6,.2,.3,.3,.3,.5h-.3c0-.2,.2-.4,.4-.5,.2-.1,.4-.2,.6-.2s.3,0,.5,.1c.1,0,.3,.2,.3,.3,0,.2,.1,.4,.1,.6v1.4h-1v-1.2c0-.1,0-.3,0-.3,0,0-.1,0-.2,0s-.1,0-.2,0c0,0,0,0-.1,.1,0,0,0,.1,0,.3v1.2h-1v-1.2c0-.1,0-.3,0-.3,0,0-.1,0-.2,0s-.1,0-.2,0c0,0,0,0-.1,.1,0,0,0,.1,0,.3v1.2h-1Z" style="fill:#fff;"/><path d="M63.3,323.3c-.2,0-.4,0-.6,0-.2,0-.4-.1-.5-.2l.3-.7c.1,0,.2,.1,.4,.2,.2,0,.3,0,.4,0s.2,0,.2,0c0,0,0,0,0,0s0,0,0,0c0,0-.1,0-.2,0,0,0-.2,0-.3,0,0,0-.2,0-.3,0,0,0-.2,0-.3-.1,0,0-.1-.1-.2-.2,0,0,0-.2,0-.3s0-.3,.1-.4c0-.1,.2-.2,.4-.3,.2,0,.4-.1,.7-.1s.4,0,.5,0c.2,0,.3,0,.5,.1l-.3,.7c-.1,0-.2-.1-.4-.1-.1,0-.2,0-.3,0s-.2,0-.3,0c0,0,0,0,0,0s0,0,0,0c0,0,.1,0,.2,0,0,0,.2,0,.3,0,0,0,.2,0,.3,0,0,0,.2,0,.3,.1,0,0,.1,.1,.2,.2,0,0,0,.2,0,.3s0,.3-.1,.4c0,.1-.2,.2-.4,.3-.2,0-.4,.1-.7,.1Z" style="fill:#fff;"/></g></g><g><rect x="176.1" y="308.5" width="19.3" height="19.3" rx="6.3" ry="6.3" style="fill:url(#d);"/><g><path d="M180.9,322.4v-7.1h3.8c1,0,1.7,.2,2.2,.5,.5,.3,.7,.8,.7,1.3s0,.7-.3,1c-.2,.3-.5,.5-.9,.7-.4,.2-.8,.2-1.4,.2l.2-.5c.6,0,1,0,1.4,.2,.4,.2,.7,.4,.9,.7,.2,.3,.3,.6,.3,1.1,0,.6-.3,1.1-.8,1.4-.5,.3-1.3,.5-2.2,.5h-4Zm2.4-1.7h1.4c.3,0,.5,0,.6-.1,.1,0,.2-.2,.2-.4s0-.3-.2-.4c-.1,0-.3-.1-.6-.1h-1.6v-1.6h1.3c.3,0,.5,0,.6-.1,.1,0,.2-.2,.2-.4s0-.3-.2-.4c-.1,0-.3-.1-.6-.1h-1.1v3.7Z" style="fill:#fff;"/><path d="M188.7,322.4v-7.1h2.4v7.1h-2.4Z" style="fill:#fff;"/></g></g><g><rect x="143.2" y="308.8" width="19.3" height="19.3" rx="6.3" ry="6.3" style="fill:url(#e);"/><path d="M150.4,319.9v-3.3h9.8v3.3h-9.8Zm3.2,3.1v-9.4h3.5v9.4h-3.5Z" style="fill:#fff;"/></g><g><rect x="208.3" y="308.5" width="19.3" height="19.3" rx="6.3" ry="6.3" style="fill:url(#f);"/><text transform="translate(213.8 322.1)" style="fill:#fff; font-family:Montserrat-Black, Montserrat; font-size:9.7px; font-weight:800;"><tspan x="0" y="0">Fl</tspan></text></g><g><rect x="240.6" y="308.5" width="19.3" height="19.3" rx="6.3" ry="6.3" style="fill:url(#g);"/><path d="M245.5,318.4c-.3,0-.4,.3-.4,.5s0,.2,.1,.3l-.2,1.4c0,0,0,.1,0,.2,0,0,0,0,.2,0h1c0,0,.1,0,.2,0,0,0,0-.1,0-.2l-.2-1.4c0,0,0-.2,0-.3,0-.2-.1-.4-.3-.5v-.8l1.3,.5v3.1c0,.4,.3,.7,.7,.7h5.8c.4,0,.7-.3,.7-.7v-3.3l3-1.3c0,0,.1-.1,.1-.2,0,0,0-.2-.1-.2l-6.8-2.3s0,0-.1,0c-2.3,.9-6.2,2.3-6.6,2.3,0,0-.2,0-.2,.2,0,0,0,.2,.1,.2l1.8,.8v.9Zm-.1,2.1l.2-1.2c0,0,0-.1,0-.2,0,0,0,0,0-.1,0,0,0-.2,.2-.2s.2,0,.2,.2,0,0,0,0c0,0,0,.1,0,.2l.2,1.3h-.5Zm8.6,.9c0,.2-.1,.3-.3,.3h-5.8c-.2,0-.3-.1-.3-.3v-3l2.9,1.2s0,0,0,0,0,0,0,0l3.3-1.4v3.2Zm-9.5-4.8c1.5-.5,5-1.8,6-2.2l6.3,2.1-6.2,2.7-4.1-1.8,3.4-.5c.2,0,.4,.1,.6,.1,.5,0,.8-.2,.8-.4s-.4-.4-.8-.4-.7,.1-.8,.3l-4,.5-1.3-.6Zm5.5,.1c0,0,.2-.2,.6-.2s.6,.1,.6,.2-.2,.2-.6,.2-.6-.1-.6-.2Z" style="fill:#fff;"/></g><g><rect x="111.6" y="308.5" width="19.3" height="19.3" rx="6.3" ry="6.3" style="fill:url(#h);"/><g><path d="M115.6,320.9v-5.5h1.9v5.5h-1.9Zm1.7-2v-1.5h2v1.5h-2Zm1.8,2v-5.5h1.9v5.5h-1.9Z" style="fill:#fff;"/><path d="M122,320.9v-5.5h2.6c.8,0,1.5,.2,1.9,.6,.4,.4,.7,.9,.7,1.5s-.1,.8-.3,1.1-.5,.5-.9,.7c-.4,.2-.8,.2-1.3,.2h-1.6l.8-.8v2.2h-1.9Zm1.9-1.9l-.8-.8h1.5c.3,0,.4,0,.6-.2,.1-.1,.2-.3,.2-.5s0-.4-.2-.5c-.1-.1-.3-.2-.6-.2h-1.5l.8-.8v3Zm1.4,1.9l-1.4-2h2l1.4,2h-2Z" style="fill:#fff;"/></g></g><g><rect x="79.4" y="308.5" width="19.3" height="19.3" rx="6.3" ry="6.3" style="fill:url(#i);"/><path d="M89.4,324.9c-1.1,0-2.1-.2-3-.5-.9-.3-1.7-.8-2.4-1.5-.7-.6-1.2-1.4-1.6-2.2-.4-.9-.6-1.8-.6-2.9s.2-2,.6-2.9c.4-.9,.9-1.6,1.6-2.2,.7-.6,1.5-1.1,2.4-1.5,.9-.3,1.9-.5,3-.5s2.5,.2,3.5,.7c1,.5,1.9,1.1,2.5,2l-2.9,2.6c-.4-.5-.8-.9-1.3-1.2-.5-.3-1-.4-1.6-.4s-.9,0-1.3,.2c-.4,.2-.7,.4-1,.7-.3,.3-.5,.7-.6,1.1-.2,.4-.2,.9-.2,1.4s0,1,.2,1.4c.2,.4,.4,.8,.6,1.1,.3,.3,.6,.5,1,.7,.4,.2,.8,.2,1.3,.2s1.1-.1,1.6-.4c.5-.3,.9-.7,1.3-1.2l2.9,2.6c-.7,.9-1.5,1.5-2.5,2-1,.5-2.2,.7-3.5,.7Z" style="fill:#fff;"/></g><g><rect x="305" y="308.5" width="19.3" height="19.3" rx="6.3" ry="6.3" style="fill:url(#j);"/><g id="k"><g><path d="M314.9,325.7c-1.8,0-3.6-.7-4.9-2-1.3-1.3-2-3-2-4.8s.7-3.5,2-4.8c1.3-1.3,3-2,4.9-2s3.6,.7,4.9,2c1.3,1.3,2,3,2,4.8s-.7,3.5-2,4.8c-1.3,1.3-3,2-4.9,2Zm0-13.1c-3.5,0-6.3,2.8-6.3,6.3s2.8,6.3,6.3,6.3,6.3-2.8,6.3-6.3-2.8-6.3-6.3-6.3Z" style="fill:#fff;"/><path d="M317.8,322h-5.5c-.2,0-.3-.1-.3-.3v-1.4c0-1.1,.9-2,2-2h2c1.1,0,2,.9,2,2v1.4c0,.2-.1,.3-.3,.3Zm-5.2-.6h4.9v-1.1c0-.8-.6-1.4-1.4-1.4h-2c-.8,0-1.4,.6-1.4,1.4v1.1Z" style="fill:#fff;"/><path d="M315,318.1c-.9,0-1.7-.8-1.7-1.7s.8-1.7,1.7-1.7,1.7,.8,1.7,1.7-.8,1.7-1.7,1.7Zm0-2.8c-.6,0-1.2,.5-1.2,1.1s.5,1.1,1.2,1.1,1.1-.5,1.1-1.1-.5-1.1-1.1-1.1Z" style="fill:#fff;"/><path d="M314.9,314.4c-.2,0-.3-.1-.3-.3v-1.7c0-.2,.1-.3,.3-.3s.3,.1,.3,.3v1.7c0,.2-.1,.3-.3,.3Z" style="fill:#fff;"/><path d="M314.9,325.7c-.2,0-.3-.1-.3-.3v-1.7c0-.2,.1-.3,.3-.3s.3,.1,.3,.3v1.7c0,.2-.1,.3-.3,.3Z" style="fill:#fff;"/><path d="M321.5,319.2h-1.7c-.2,0-.3-.1-.3-.3s.1-.3,.3-.3h1.7c.2,0,.3,.1,.3,.3,0,.2-.2,.3-.3,.3Z" style="fill:#fff;"/><path d="M310,319.2h-1.7c-.2,0-.3-.1-.3-.3s.1-.3,.3-.3h1.7c.2,0,.3,.1,.3,.3,0,.2-.2,.3-.3,.3Z" style="fill:#fff;"/><rect x="309.5" y="316.9" width=".9" height=".9" style="fill:#fff;"/><rect x="311.2" y="316.9" width=".9" height=".9" style="fill:#fff;"/><rect x="317.8" y="316.9" width=".9" height=".9" style="fill:#fff;"/><rect x="319.5" y="316.9" width=".9" height=".9" style="fill:#fff;"/><rect x="309.5" y="320" width=".9" height=".9" style="fill:#fff;"/><rect x="319.5" y="320" width=".9" height=".9" style="fill:#fff;"/></g></g></g><g><rect x="272.8" y="308.5" width="19.3" height="19.3" rx="6.3" ry="6.3" style="fill:url(#l);"/><g><path d="M276.9,322.4v-8h2.7v8h-2.7Z" style="fill:#fff;"/><path d="M280.9,322.4v-8h2.2l4.1,4.9h-1v-4.9h2.6v8h-2.2l-4.1-4.9h1v4.9h-2.6Z" style="fill:#fff;"/></g></g><g><rect x="15.7" y="308.5" width="19.3" height="19.3" rx="6.3" ry="6.3" style="fill:url(#m);"/><path d="M19.9,324.6v-12.4h10.1v3.1h-6v6.1h6.2v3.1h-10.3Zm3.8-4.8v-3h5.5v3h-5.5Z" style="fill:#fff;"/></g><g><rect x="437" y="308.6" width="19.6" height="19.6" rx="6.3" ry="6.3" style="fill:url(#n);"/><g id="o"><g><path d="M448.3,318.9c0,0-.2,0-.2-.2s0-.2,.2-.2c.6,0,.9-.6,.9-1.1s0-.4-.2-.6c0,0,0,0,0-.1,0,0,0-.2,0-.2,0-.5-.4-.9-.9-.9s-.5,.1-.7,.3c0,0,0,0-.1,0,0,0,0,0-.1,0-.2-.4-.7-.7-1.2-.7-.8,0-1.4,.6-1.4,1.3s0,0,0,.1c0,0,0,0,0,.1-.2,.2-.3,.5-.3,.7,0,.5,.2,1.1,.9,1.1s.2,0,.2,.2,0,.2-.2,.2c-.7,0-1.2-.5-1.2-1.4s.1-.6,.3-.8h0c0-1,.8-1.7,1.7-1.7s1.1,.3,1.4,.7c.2-.2,.5-.3,.7-.3,.6,0,1.2,.5,1.2,1.2s0,.2,0,.3c.1,.2,.2,.4,.2,.7,0,.8-.5,1.4-1.2,1.4Z" style="fill:#fff;"/><path d="M446.9,320.2c-.2,0-.4-.2-.6-.5-.1-.3-.2-.7-.2-1.1s0-.8,.2-1.1c.1-.3,.3-.5,.6-.5s.4,.2,.6,.5c.1,.3,.2,.7,.2,1.1s0,.8-.2,1.1c-.1,.3-.3,.5-.6,.5Zm0-3c0,0-.2,0-.3,.3-.1,.3-.2,.6-.2,1s0,.8,.2,1c.1,.3,.2,.3,.3,.3s.2,0,.3-.3c.1-.3,.2-.6,.2-1s0-.8-.2-1c-.1-.3-.2-.3-.3-.3Z" style="fill:#fff;"/><path d="M448.3,318.8h-1.5c0,0-.2,0-.2-.2v-1.6s0,0,0-.1c0,0,0,0,.1,0,.9,0,1.6,.8,1.6,1.7h0c0,.2,0,.2-.1,.2Zm-1.3-.3h1.2c0-.7-.5-1.2-1.2-1.3v1.3Z" style="fill:#fff;"/><path d="M446.9,318.8h-1.6c0,0-.1,0-.1-.1h0c0-1,.8-1.8,1.7-1.8h0c0,0,.1,0,.1,.1v1.6c0,0,0,.2-.2,.2Zm-1.5-.3h1.3v-1.3c-.7,0-1.3,.6-1.3,1.3Z" style="fill:#fff;"/><path d="M446.9,320.2s0,0-.1,0c0,0,0,0,0-.1v-1.5c0,0,0-.2,.2-.2h1.5s0,0,.1,0c0,0,0,0,0,.1,0,.4-.2,.8-.5,1.1-.3,.3-.7,.5-1.1,.5h0Zm.2-1.5v1.2c.6,0,1.1-.6,1.2-1.2h-1.2Z" style="fill:#fff;"/><path d="M446.8,320.2c-.9,0-1.6-.7-1.7-1.6,0,0,0,0,0-.1,0,0,0,0,.1,0h1.6c0,0,.2,0,.2,.2v1.5c0,0,0,.1-.1,.1h0Zm-1.4-1.5c.1,.6,.6,1.1,1.3,1.2v-1.2h-1.3Z" style="fill:#fff;"/><path d="M446,322h-2.5c0,0-.2,0-.2-.2s0-.2,.2-.2h2.4v-.9c0,0,0-.2,.2-.2s.2,0,.2,.2v1c0,0,0,.2-.2,.2Z" style="fill:#fff;"/><path d="M450.3,322h-2.5c0,0-.2,0-.2-.2v-1c0,0,0-.2,.2-.2s.2,0,.2,.2v.9h2.4c0,0,.2,0,.2,.2s0,.1-.2,.1Z" style="fill:#fff;"/><path d="M446.6,322c0,0-.2,0-.2-.2v-1c0,0,0-.2,.2-.2s.2,0,.2,.2v1c0,0,0,.2-.2,.2Z" style="fill:#fff;"/><path d="M447.2,322c0,0-.2,0-.2-.2v-1c0,0,0-.2,.2-.2s.2,0,.2,.2v1c0,0,0,.2-.2,.2Z" style="fill:#fff;"/><rect x="443.9" y="320.7" width=".3" height=".3" style="fill:#fff;"/><rect x="444.5" y="320.7" width=".3" height=".3" style="fill:#fff;"/><rect x="445.1" y="320.7" width=".3" height=".3" style="fill:#fff;"/><rect x="448.3" y="320.7" width=".3" height=".3" style="fill:#fff;"/><rect x="448.9" y="320.7" width=".3" height=".3" style="fill:#fff;"/><rect x="449.5" y="320.7" width=".3" height=".3" style="fill:#fff;"/></g></g></g><g><rect x="371.5" y="308.6" width="19.6" height="19.6" rx="6.3" ry="6.3" style="fill:url(#p);"/><g><path d="M374.4,319.3c-.2,0-.4,0-.5,0-.2,0-.3,0-.4-.2l.2-.5c.1,0,.2,.1,.3,.1,.1,0,.3,0,.4,0s.1,0,.2,0c0,0,0,0,0,0,0,0,0,0,0,0,0,0,0,0,0,0,0,0-.1,0-.2,0,0,0-.2,0-.2,0,0,0-.2,0-.3,0,0,0-.2,0-.2-.1,0,0-.1-.1-.2-.2,0,0,0-.2,0-.3s0-.3,.1-.4c0-.1,.2-.2,.3-.3,.2,0,.3-.1,.6-.1s.3,0,.4,0c.1,0,.3,0,.4,.1l-.2,.5c-.1,0-.2,0-.3-.1-.1,0-.2,0-.3,0s-.1,0-.2,0c0,0,0,0,0,0,0,0,0,0,0,0,0,0,0,0,0,0,0,0,.1,0,.2,0,0,0,.2,0,.2,0,0,0,.2,0,.3,0,0,0,.2,0,.2,.1,0,0,.1,.1,.2,.2,0,0,0,.2,0,.3s0,.3-.1,.4c0,.1-.2,.2-.3,.3-.2,0-.3,.1-.6,.1Z" style="fill:#fff;"/><path d="M376,319.2v-1.6h-.6v-.6h2v.6h-.6v1.6h-.7Z" style="fill:#fff;"/><path d="M377.3,319.2l1-2.2h.7l1,2.2h-.8l-.7-1.8h.3l-.7,1.8h-.8Zm.6-.4l.2-.5h1l.2,.5h-1.4Z" style="fill:#fff;"/><path d="M380,319.2v-2.2h1.8v.6h-1v1.6h-.7Zm.7-.7v-.6h1v.6h-1Z" style="fill:#fff;"/><path d="M382,319.2v-2.2h1.8v.6h-1v1.6h-.7Zm.7-.7v-.6h1v.6h-1Z" style="fill:#fff;"/><path d="M384.1,319.2v-2.2h.7v2.2h-.7Z" style="fill:#fff;"/><path d="M385.2,319.2v-2.2h.6l1.1,1.3h-.3v-1.3h.7v2.2h-.6l-1.1-1.3h.3v1.3h-.7Z" style="fill:#fff;"/><path d="M388.8,319.3c-.2,0-.3,0-.5,0-.1,0-.3-.1-.4-.2-.1-.1-.2-.2-.3-.4,0-.1,0-.3,0-.5s0-.3,0-.5c0-.1,.1-.3,.3-.4,.1-.1,.2-.2,.4-.2,.2,0,.3,0,.5,0s.4,0,.6,.1c.2,0,.3,.2,.4,.3l-.5,.4c0,0-.1-.1-.2-.2,0,0-.2,0-.3,0s-.2,0-.2,0c0,0-.1,0-.2,.1,0,0,0,.1-.1,.2,0,0,0,.1,0,.2s0,.2,0,.2c0,0,0,.1,.1,.2,0,0,.1,0,.2,.1,0,0,.1,0,.2,0s.2,0,.2,0c0,0,.2,0,.3-.1l.4,.5c-.1,0-.3,.2-.5,.2-.2,0-.3,0-.5,0Zm1-.3h-.6v-.9h.6v.9Z" style="fill:#fff;"/></g></g><g><rect x="337.2" y="308.6" width="19.6" height="19.6" rx="6.3" ry="6.3" style="fill:url(#q);"/><path d="M343.4,325.4c-1.4,0-2.5-1.1-2.5-2.5s0-.2,0-.3c.2-1.2,1.2-2.1,2.5-2.1s1.9,.6,2.3,1.4c.1,.3,.2,.7,.2,1,0,1.4-1.1,2.5-2.5,2.5Zm7.9-8.6c-1.4,0-2.5-1.1-2.5-2.5s0-.7,.2-1c.4-.9,1.3-1.4,2.3-1.4s2.4,1,2.5,2.3c0,0,0,.1,0,.2,0,1.4-1.1,2.5-2.5,2.5Z" style="fill:#f6f6f6;"/></g><g><rect x="404.2" y="307.8" width="19.6" height="19.6" rx="6.3" ry="6.3" style="fill:url(#r);"/><g><path d="M407.6,320.8v-5.9h2.8c.5,0,1,0,1.4,.3,.4,.2,.7,.4,.9,.8,.2,.3,.3,.7,.3,1.2s-.1,.8-.3,1.2c-.2,.3-.5,.6-.9,.8-.4,.2-.9,.3-1.4,.3h-1.7l.9-.8v2.3h-2Zm2-2.1l-.9-.9h1.6c.3,0,.5,0,.6-.2,.1-.1,.2-.3,.2-.5s0-.4-.2-.5c-.1-.1-.3-.2-.6-.2h-1.6l.9-.9v3.2Z" style="fill:#fff;"/><path d="M414.5,320.9c-.3,0-.6-.1-.8-.3-.2-.2-.3-.5-.3-.8s.1-.6,.3-.8c.2-.2,.5-.3,.8-.3s.6,0,.8,.3c.2,.2,.3,.5,.3,.8s-.1,.6-.3,.8c-.2,.2-.5,.3-.8,.3Z" style="fill:#fff;"/><path d="M416.2,320.8v-5.9h4.8v1.5h-2.8v2.9h2.9v1.5h-4.9Zm1.8-2.3v-1.4h2.6v1.4h-2.6Z" style="fill:#fff;"/></g></g></g></svg>