<?xml version="1.0" encoding="UTF-8"?>
<svg id="Layer_2" data-name="Layer 2" xmlns="http://www.w3.org/2000/svg" viewBox="0 0 303.81 90.27">
  <defs>
    <style>
      .cls-1 {
        fill: #009eff;
      }

      .cls-1, .cls-2, .cls-3 {
        stroke-width: 0px;
      }

      .cls-2 {
        fill: #0052fa;
      }

      .cls-3 {
        fill: #24282b;
      }
    </style>
  </defs>
  <g id="Layer_1-2" data-name="Layer 1">
    <g>
      <g>
        <path class="cls-2" d="m51.46.56v.91h1.28v3.65h.93V1.47h1.28v-.91h-3.49Z"/>
        <path class="cls-2" d="m59.42.56l-1.49,2.55-1.49-2.55h-.95v4.56h.93v-2.96l1.27,2.16h.49l1.26-2.16v2.96h.94V.56h-.95Z"/>
      </g>
      <g>
        <path class="cls-1" d="m89.49,58.39c0,21.68-14.48,31.88-30.98,31.88h-24.52c-3.66,0-6.63-2.96-6.63-6.62v-35.87h6.79c2.21,0,4.33.92,5.84,2.54l2.54,2.72c1.39,1.48,2.16,3.43,2.16,5.47v8.14c0,3.21,2.6,5.82,5.82,5.82h7.94c7.29,0,13.68-4.51,13.68-14.08s-6.4-14.09-13.68-14.09h-1.73c-2.21,0-4.34-.91-5.84-2.54l-2.19-2.34c-1.38-1.48-2.16-3.43-2.16-5.47v-7.46h11.96c16.5,0,30.98,10.21,30.98,31.89Z"/>
        <path class="cls-2" d="m46.55,6.62v19.88h-12.56c-3.66,0-6.63,2.96-6.63,6.63v14.65h-4.15C10.86,47.78,0,40.13,0,23.89S10.86,0,23.21,0h16.71c3.65,0,6.63,2.96,6.63,6.62Z"/>
      </g>
      <g>
        <g>
          <path class="cls-3" d="m123.84,76.41v-4.94c0-2.86-.85-5.19-2.54-7-1.7-1.81-3.88-2.72-6.54-2.72-2.49,0-4.62.87-6.37,2.63-1.78,1.75-2.67,3.88-2.67,6.38s.9,4.79,2.7,6.52c1.8,1.73,4.07,2.59,6.81,2.59h5.12c-.15,1.3-.71,2.42-1.68,3.35-.97.94-2.24,1.41-3.8,1.41-1,0-1.98-.21-2.91-.63-.94-.42-1.7-1-2.27-1.75l-2.41,2.27c.84,1.1,1.95,1.98,3.33,2.61,1.38.64,2.82.95,4.34.95,2.53,0,4.58-.78,6.17-2.35,1.58-1.58,2.49-3.53,2.7-5.86h2.96v-3.46h-2.92Zm-3.46,0h-5.15c-1.8,0-3.25-.53-4.35-1.59-1.14-1.03-1.7-2.39-1.7-4.07,0-1.56.54-2.88,1.64-3.97,1.09-1.08,2.41-1.62,3.94-1.62,1.69,0,3.04.57,4.07,1.7,1.03,1.13,1.55,2.58,1.55,4.36v5.19Z"/>
          <path class="cls-3" d="m126.03,76.41v3.46h14.41v-3.46h-14.41Z"/>
          <path class="cls-3" d="m151.22,76.41c-1.9,0-2.85-1.21-2.85-3.64v-10.91h-3.46v10.91c0,2.43-.94,3.64-2.81,3.64h-2.38v3.46h2.38c2.04,0,3.55-.81,4.54-2.44.99,1.63,2.51,2.44,4.58,2.44h2.38v-3.46h-2.38Zm-6.14,7.1c-.42-.4-.91-.61-1.47-.61s-1.06.21-1.47.61c-.41.41-.61.91-.61,1.48s.2,1.04.61,1.46c.41.42.9.63,1.47.63s1.05-.21,1.47-.63c.42-.42.63-.91.63-1.46s-.21-1.07-.63-1.48Zm6.08,0c-.42-.4-.91-.61-1.46-.61s-1.05.21-1.44.61c-.41.41-.61.91-.61,1.48s.2,1.07.59,1.47c.4.41.88.62,1.46.62s1.04-.21,1.46-.63c.42-.42.63-.91.63-1.46s-.21-1.07-.63-1.48Z"/>
          <path class="cls-3" d="m156.7,51.76v21.01c0,2.43-.95,3.64-2.85,3.64h-.97v3.46h.97c1.95,0,3.49-.65,4.62-1.94,1.13-1.3,1.7-3.01,1.7-5.15v-21.01h-3.47Z"/>
          <path class="cls-3" d="m172.23,76.41c-1.9,0-2.85-1.21-2.85-3.64v-21.01h-3.42v21.01c0,2.14.56,3.85,1.68,5.15,1.11,1.29,2.65,1.94,4.59,1.94h.9v-3.46h-.9Z"/>
          <path class="cls-3" d="m190.5,64.52c-1.73-1.78-3.87-2.67-6.41-2.67s-4.52.82-6.2,2.49c-1.68,1.65-2.52,3.65-2.52,5.98,0,1.25.28,2.41.85,3.48.56,1.07,1.33,1.93,2.28,2.61h-6.08v3.46h20.68v-8.75c0-2.62-.86-4.82-2.59-6.59Zm-.86,11.89h-5.55c-1.54,0-2.85-.54-3.93-1.62-1.09-1.08-1.62-2.39-1.62-3.93s.53-2.86,1.62-3.94c1.08-1.09,2.39-1.64,3.93-1.64s2.85.53,3.93,1.61c1.08,1.09,1.62,2.4,1.62,3.97v5.55Zm-7.17-19.89c-.41-.41-.89-.62-1.44-.62s-1.03.21-1.42.62c-.4.41-.59.89-.59,1.44s.2,1.03.59,1.44c.4.41.87.61,1.42.61s1.03-.2,1.44-.61.61-.89.61-1.44-.2-1.03-.61-1.44Zm2.88-4.61c-.36-.36-.79-.54-1.29-.54-.53,0-.98.18-1.33.54-.36.35-.54.8-.54,1.33,0,.5.18.93.54,1.29.35.36.8.54,1.33.54.5,0,.93-.18,1.29-.54.36-.36.54-.79.54-1.29,0-.53-.18-.98-.54-1.33Zm3.14,4.61c-.41-.41-.89-.62-1.44-.62s-1.04.21-1.44.62c-.41.41-.62.89-.62,1.44s.21,1.03.62,1.44c.4.41.89.61,1.44.61s1.03-.2,1.44-.61c.4-.41.61-.89.61-1.44s-.21-1.03-.61-1.44Z"/>
          <path class="cls-3" d="m211.54,76.41c-1.89,0-2.84-1.21-2.84-3.64v-21.01h-3.42v21.01c0,2.14.56,3.85,1.67,5.15,1.12,1.29,2.65,1.94,4.59,1.94h.91v-3.46h-.91Z"/>
          <path class="cls-3" d="m211.72,76.41v3.46h14.41v-3.46h-14.41Z"/>
          <path class="cls-3" d="m225.42,76.41v3.46h14.41v-3.46h-14.41Z"/>
          <path class="cls-3" d="m239.1,76.41v3.46h14.41v-3.46h-14.41Z"/>
          <path class="cls-3" d="m252.79,76.41v3.46h14.41v-3.46h-14.41Z"/>
          <path class="cls-3" d="m271.57,61.85v10.91c0,1.13-.26,2.02-.76,2.67-.51.65-1.24.97-2.2.97h-2.13v3.46h2.13c1.94,0,3.5-.65,4.67-1.94,1.16-1.3,1.75-3.01,1.75-5.15v-10.91h-3.46Zm.12-5.55c-.42-.41-.92-.62-1.5-.62s-1.03.21-1.44.62c-.4.4-.61.9-.61,1.47s.21,1.07.61,1.48c.41.4.89.61,1.44.61s1.08-.21,1.5-.61c.42-.41.63-.91.63-1.48s-.21-1.07-.63-1.47Zm6.08,0c-.41-.41-.91-.62-1.48-.62s-1.06.21-1.46.62c-.4.4-.59.9-.59,1.47s.2,1.07.59,1.48c.4.4.88.61,1.46.61s1.07-.21,1.48-.61c.4-.41.61-.91.61-1.48s-.21-1.07-.61-1.47Z"/>
          <path class="cls-3" d="m280.68,51.76v28.1h3.42v-28.1h-3.42Z"/>
          <path class="cls-3" d="m301.25,64.57c-1.7-1.81-3.85-2.72-6.45-2.72-1.83,0-3.45.47-4.86,1.4l1.44,3.03c1.05-.67,2.2-1,3.42-1,1.65,0,3,.57,4.02,1.7,1.02,1.14,1.53,2.65,1.53,4.53v4.9h-12.07v3.46h15.52v-8.36c0-2.82-.85-5.12-2.56-6.94Z"/>
        </g>
        <g>
          <path class="cls-3" d="m123.79,18.03c-2.6-2.53-5.93-3.79-9.98-3.79h-8.09v26.38h8.09c4.14,0,7.49-1.26,10.04-3.78,2.56-2.52,3.84-5.66,3.84-9.45s-1.3-6.82-3.9-9.36Zm-2.68,16.16c-1.81,1.83-4.24,2.74-7.3,2.74h-4.37v-19.04h4.37c2.96,0,5.38.92,7.23,2.77,1.85,1.84,2.78,4.07,2.78,6.7s-.91,5-2.71,6.83Z"/>
          <path class="cls-3" d="m147.96,20.74v4.19c-.63-1.3-1.61-2.37-2.98-3.22-1.36-.84-2.83-1.27-4.42-1.27-2.68,0-4.96,1-6.83,3-1.9,2-2.86,4.4-2.86,7.23s.95,5.19,2.84,7.19c1.88,2,4.17,3,6.85,3,1.59,0,3.06-.42,4.42-1.25,1.37-.83,2.35-1.88,2.98-3.16v4.16h3.44v-19.87h-3.44Zm-2.07,14.67c-1.32,1.3-2.9,1.95-4.75,1.95s-3.43-.65-4.73-1.95c-1.3-1.3-1.95-2.88-1.95-4.73s.65-3.45,1.97-4.77c1.31-1.33,2.88-1.98,4.72-1.98s3.43.66,4.75,1.98c1.32,1.33,1.97,2.91,1.97,4.77s-.65,3.43-1.97,4.73Z"/>
          <path class="cls-3" d="m166.14,37.26c-.44.16-.95.25-1.52.25-1.13,0-2.03-.37-2.68-1.12-.65-.74-.97-1.82-.97-3.21v-9.25h4.77v-3.18h-4.77v-6.51l-3.4,2.3v4.21h-2.78v3.18h2.68v9.29c0,2.63.62,4.57,1.86,5.84s2.85,1.9,4.82,1.9c1.11,0,2.07-.18,2.89-.54l-.9-3.14Z"/>
          <path class="cls-3" d="m186.69,20.74v4.19c-.63-1.3-1.61-2.37-2.98-3.22-1.36-.84-2.83-1.27-4.42-1.27-2.68,0-4.96,1-6.83,3-1.9,2-2.86,4.4-2.86,7.23s.95,5.19,2.84,7.19c1.89,2,4.17,3,6.85,3,1.59,0,3.06-.42,4.42-1.25,1.37-.83,2.35-1.88,2.98-3.16v4.16h3.43v-19.87h-3.43Zm-2.07,14.67c-1.32,1.3-2.9,1.95-4.75,1.95s-3.43-.65-4.73-1.95c-1.3-1.3-1.95-2.88-1.95-4.73s.65-3.45,1.97-4.77c1.31-1.33,2.88-1.98,4.72-1.98s3.43.66,4.75,1.98c1.32,1.33,1.97,2.91,1.97,4.77s-.65,3.43-1.97,4.73Z"/>
          <path class="cls-3" d="m222.15,14.23l-7.59,20.85-7.59-20.85h-4.08l9.8,26.38h3.75l9.8-26.38h-4.08Z"/>
          <path class="cls-3" d="m245.02,20.74v4.19c-.63-1.3-1.62-2.37-2.98-3.22-1.37-.84-2.84-1.27-4.43-1.27-2.68,0-4.96,1-6.83,3-1.9,2-2.86,4.4-2.86,7.23s.95,5.19,2.84,7.19c1.89,2,4.17,3,6.85,3,1.59,0,3.06-.42,4.43-1.25,1.36-.83,2.35-1.88,2.98-3.16v4.16h3.43v-19.87h-3.43Zm-2.08,14.67c-1.31,1.3-2.9,1.95-4.75,1.95s-3.43-.65-4.73-1.95c-1.3-1.3-1.95-2.88-1.95-4.73s.66-3.45,1.97-4.77c1.32-1.33,2.89-1.98,4.72-1.98s3.44.66,4.75,1.98c1.32,1.33,1.98,2.91,1.98,4.77s-.66,3.43-1.98,4.73Z"/>
          <path class="cls-3" d="m253.63,12.43v28.19h3.5V12.43h-3.5Z"/>
          <path class="cls-3" d="m276.17,20.74v10.08c0,2.17-.51,3.81-1.54,4.91-1.02,1.11-2.3,1.66-3.84,1.66s-2.86-.55-3.87-1.66c-1.01-1.1-1.51-2.74-1.51-4.91v-10.08h-3.55v10.08c0,3.3.75,5.81,2.25,7.52,1.49,1.71,3.46,2.57,5.89,2.57,1.42,0,2.68-.35,3.76-1.06,1.08-.72,1.91-1.64,2.49-2.77v3.54l3.43-1.28v-18.6h-3.51Z"/>
          <path class="cls-3" d="m303.81,30.64c0-2.82-.96-5.21-2.89-7.19-1.93-1.98-4.32-2.96-7.19-2.96s-5.14.99-7.11,2.96c-1.98,2-2.96,4.4-2.96,7.19s1.01,5.27,3.03,7.27c2.03,2,4.54,3,7.52,3,1.66,0,3.27-.37,4.81-1.12,1.55-.75,2.78-1.75,3.72-3l-2.85-1.77c-1.4,1.7-3.29,2.56-5.68,2.56-1.7,0-3.19-.49-4.46-1.5-1.26-1-2.03-2.26-2.29-3.78h16.26c.07-1.01.11-1.56.11-1.66Zm-16.41-1.23c.12-1.56.78-2.9,1.97-3.99,1.19-1.09,2.66-1.65,4.4-1.65s3.27.55,4.46,1.65c1.19,1.09,1.84,2.43,1.93,3.99h-12.76Z"/>
        </g>
      </g>
    </g>
  </g>
</svg>