<?xml version="1.0" encoding="UTF-8"?><svg id="a" xmlns="http://www.w3.org/2000/svg" xmlns:xlink="http://www.w3.org/1999/xlink" viewBox="0 0 3210.7 1151.3"><defs><linearGradient id="b" x1="181" y1="216.8" x2="963.2" y2="999" gradientUnits="userSpaceOnUse"><stop offset="0" stop-color="#9de359"/><stop offset="1" stop-color="#00d9a7"/></linearGradient></defs><rect x="133" y="172.1" width="878.2" height="871.6" rx="158.2" ry="158.2" style="fill:url(#b);"/><path d="M570.7,328.5l161.4,93.2v-68l-161.4-93.2-300.6,173.5v347.1l300.6,173.5c96.8-55.9,193.6-111.7,290.3-167.6l10.2-5.9v-79.5l-58.9-16.6v62.1l-241.7,139.5-241.7-139.5V468l241.7-139.5Z" style="fill:#fff; fill-rule:evenodd;"/><path d="M732,514.4v-68l-161.4-93.2-220.3,127.2v254.4l220.3,127.2,220.3-127.2-2.3-29.1-56.6-32.7v27.8l-161.4,93.2-161.4-93.2v-186.4l161.4-93.2,161.4,93.2Z" style="fill:#fff; fill-rule:evenodd;"/><polygon points="570.7 487.1 570.7 555.1 871.2 728.7 871.2 660.6 570.7 487.1" style="fill:#fff; fill-rule:evenodd;"/><g><path d="M1304.2,882.6c-19.6,0-37.8-3.1-54.6-9.4-16.8-6.3-31.3-15.2-43.4-26.8-12.2-11.6-21.7-25.2-28.5-40.9-6.9-15.7-10.3-33-10.3-51.9s3.4-36.2,10.3-51.9c6.9-15.7,16.4-29.4,28.7-40.9,12.3-11.6,26.9-20.5,43.8-26.8,16.9-6.3,35.4-9.4,55.5-9.4s44.3,3.9,62.7,11.7c18.4,7.8,33.7,19,45.7,33.7l-44.7,40.4c-8.5-9.2-17.7-16.1-27.5-20.7-9.8-4.6-20.7-6.9-32.8-6.9s-20.3,1.7-29.1,5c-8.7,3.3-16.2,8.1-22.3,14.4-6.1,6.3-10.9,13.7-14.4,22.3-3.4,8.6-5.1,18.4-5.1,29.2s1.7,20,5.1,28.7c3.4,8.7,8.2,16.2,14.4,22.5,6.1,6.3,13.5,11.1,22.2,14.5,8.6,3.4,18.1,5.1,28.5,5.1s20.6-1.7,30.5-5.1c9.9-3.4,20-9.3,30.1-17.5l39.3,49.3c-14.2,10.2-30.6,18-49.3,23.4-18.7,5.4-37,8.2-54.9,8.2Zm104.2-31.5l-62-9.2v-93.6h62v102.8Z"/><path d="M1524,877.7v-248.1h110.9c36.2,0,64,8.2,83.5,24.6,19.5,16.4,29.2,38.8,29.2,67.2s-4.5,34.8-13.5,48.4c-9,13.6-21.7,24-38.1,31.2-16.4,7.2-36,10.8-58.7,10.8h-74.4l31.2-29.4v95.4h-70.2Zm70.2-87.9l-31.2-32.3h70.2c14.6,0,25.6-3.2,32.8-9.6,7.2-6.4,10.8-15.2,10.8-26.6s-3.6-20.6-10.8-26.9c-7.2-6.4-18.1-9.6-32.8-9.6h-70.2l31.2-32.3v137.2Zm83.3,87.9l-61.7-90.4h74.8l62,90.4h-75.1Z"/><path d="M1827.4,877.7l109.5-248.1h69.1l109.9,248.1h-73l-85.8-213.7h27.6l-85.8,213.7h-71.6Zm59.9-48.2l18.1-51.8h121.2l18.1,51.8h-157.4Z"/><path d="M2206.7,877.7v-248.1h70.2v192.5h118.4v55.7h-188.6Z"/><path d="M2466.5,877.7l109.5-248.1h69.1l109.9,248.1h-73l-85.8-213.7h27.6l-85.8,213.7h-71.6Zm59.9-48.2l18.1-51.8h121.2l18.1,51.8h-157.4Z"/><path d="M2845.8,877.7v-248.1h126.9c32.6,0,56.9,6,73,17.9,16.1,11.9,24.1,27.6,24.1,47s-3.4,23.9-10.1,33.5c-6.7,9.6-16.2,17.1-28.4,22.7-12.2,5.6-26.6,8.3-43.4,8.3l7.1-17c17.5,0,32.7,2.7,45.7,8,13,5.3,23.1,13,30.3,23,7.2,10,10.8,22.3,10.8,36.7,0,21.5-8.7,38.2-26.1,50.2-17.4,11.9-42.7,17.9-76,17.9h-134Zm69.5-50.7h58.8c12.1,0,21.2-2.1,27.5-6.2,6.3-4.1,9.4-10.5,9.4-19s-3.1-14.8-9.4-19c-6.3-4.1-15.4-6.2-27.5-6.2h-63.8v-48.6h53.2c11.8,0,20.7-2,26.6-6,5.9-4,8.9-10,8.9-18.1s-3-14-8.9-17.9c-5.9-3.9-14.8-5.8-26.6-5.8h-48.2v146.8Z"/><path d="M1168.8,1009.8v-77.1h27.6c6.5,0,12,1,16.6,3.1,4.6,2.1,8.2,5,10.7,8.9,2.5,3.9,3.7,8.5,3.7,14s-1.2,10-3.7,13.9c-2.5,3.9-6.1,6.9-10.7,8.9-4.6,2.1-10.2,3.1-16.6,3.1h-24.5l2.5-2.6v27.8h-5.6Zm5.6-27.5l-2.5-2.8h24.5c8.3,0,14.6-1.8,18.9-5.4s6.4-8.8,6.4-15.4-2.1-11.8-6.4-15.5-10.6-5.4-18.9-5.4h-24.5l2.5-2.8v47.2Z"/><path d="M1279.4,1009.8v-77.1h5.6v72h44.4v5.1h-50Z"/><path d="M1363.9,1009.8l35.4-77.1h5.6l35.4,77.1h-6.1l-33.5-73.5h2.4l-33.4,73.5h-6.1Zm13-21.7l1.9-4.7h46.1l1.9,4.7h-49.9Z"/><path d="M1498.4,1009.8v-72h-27.7v-5.1h61.1v5.1h-27.7v72h-5.6Z"/><path d="M1578.6,1009.8v-77.1h51.5v5.1h-45.9v72h-5.6Zm5-34v-5.1h41.7v5.1h-41.7Z"/><path d="M1712.8,1010.3c-5.7,0-11-1-15.9-2.9-4.9-1.9-9.1-4.7-12.8-8.3-3.6-3.6-6.4-7.7-8.4-12.4-2-4.7-3-9.9-3-15.5s1-10.7,3-15.5,4.8-8.9,8.4-12.4c3.6-3.6,7.9-6.3,12.8-8.3,4.9-1.9,10.2-2.9,15.9-2.9s11,1,15.9,2.9c4.9,1.9,9.1,4.7,12.7,8.2,3.6,3.5,6.4,7.7,8.4,12.4,2,4.7,3,9.9,3,15.6s-1,10.8-3,15.6c-2,4.7-4.8,8.9-8.4,12.4-3.6,3.5-7.8,6.3-12.7,8.2-4.9,1.9-10.2,2.9-15.9,2.9Zm0-5.2c4.9,0,9.5-.8,13.6-2.5,4.2-1.7,7.8-4.1,10.9-7.2,3.1-3.1,5.5-6.7,7.2-10.8,1.7-4.1,2.6-8.6,2.6-13.4s-.9-9.4-2.6-13.5c-1.7-4.1-4.1-7.7-7.2-10.7-3.1-3.1-6.7-5.5-10.9-7.2-4.2-1.7-8.7-2.5-13.6-2.5s-9.5,.8-13.6,2.5c-4.2,1.7-7.8,4.1-11,7.2-3.1,3.1-5.5,6.7-7.3,10.7-1.7,4.1-2.6,8.6-2.6,13.5s.9,9.3,2.6,13.4c1.7,4.1,4.1,7.7,7.3,10.8,3.1,3.1,6.8,5.5,11,7.2,4.2,1.7,8.7,2.5,13.6,2.5Z"/><path d="M1805.4,1009.8v-77.1h27.6c9.7,0,17.3,2.3,22.8,6.8,5.5,4.6,8.3,10.9,8.3,19.2s-1.2,10-3.7,13.8c-2.5,3.9-6.1,6.8-10.7,8.9-4.6,2.1-10.2,3.1-16.6,3.1h-24.5l2.5-2.6v27.8h-5.6Zm5.6-27.5l-2.5-2.6h24.5c8.3,0,14.6-1.8,18.9-5.5,4.3-3.7,6.4-8.8,6.4-15.4s-2.1-11.8-6.4-15.5-10.6-5.4-18.9-5.4h-24.5l2.5-2.8v47.2Zm47.9,27.5l-20-28h6.4l20,28h-6.4Z"/><path d="M1917.6,1009.8v-77.1h4.7l35.8,61.8h-2.5l35.7-61.8h4.6v77.1c.1,0-5.4,0-5.4,0v-68.6c-.1,0,1.4,0,1.4,0l-33.8,58.3h-2.8l-33.9-58.3h1.7v68.6h-5.5Z"/><path d="M2137.4,1010.3c-5.7,0-11.1-1-16.2-2.9-5.1-1.9-9-4.5-11.8-7.5l2.5-4.2c2.6,2.7,6.3,5,10.8,6.9,4.6,1.9,9.4,2.8,14.6,2.8s9.3-.7,12.6-2c3.3-1.4,5.7-3.2,7.3-5.4,1.6-2.3,2.4-4.8,2.4-7.6s-.9-5.9-2.6-7.9-4.1-3.6-6.9-4.7c-2.9-1.2-6-2.2-9.4-3-3.4-.8-6.8-1.7-10.2-2.6-3.5-.9-6.6-2.1-9.5-3.6-2.9-1.5-5.2-3.5-6.9-6-1.7-2.5-2.6-5.8-2.6-9.9s1-7,2.9-10.1c1.9-3.1,4.9-5.6,8.9-7.5,4-1.9,9.2-2.9,15.5-2.9s8.5,.6,12.6,1.9c4.1,1.2,7.7,2.9,10.6,5.1l-2.1,4.5c-3.2-2.2-6.7-3.8-10.4-4.9-3.7-1.1-7.3-1.6-10.7-1.6-4.9,0-9,.7-12.2,2.1-3.2,1.4-5.6,3.2-7.2,5.6s-2.3,4.9-2.3,7.8,.9,5.9,2.6,7.9c1.7,2,4,3.6,6.9,4.7,2.9,1.2,6,2.2,9.5,3,3.4,.8,6.9,1.7,10.2,2.6,3.4,.9,6.5,2.1,9.4,3.6,2.9,1.5,5.2,3.5,6.9,5.9,1.8,2.5,2.6,5.7,2.6,9.7s-1,7-3,10.1c-2,3.1-5,5.6-9.1,7.5s-9.3,2.8-15.7,2.8Z"/><path d="M2233.8,1009.8v-28l1.3,3.6-32.4-52.7h6.2l29.4,47.9h-3.1l29.4-47.9h5.8l-32.4,52.7,1.3-3.6v28h-5.6Z"/><path d="M2336,1010.3c-5.7,0-11.1-1-16.2-2.9-5.1-1.9-9-4.5-11.8-7.5l2.5-4.2c2.6,2.7,6.3,5,10.8,6.9,4.6,1.9,9.4,2.8,14.6,2.8s9.3-.7,12.6-2c3.3-1.4,5.7-3.2,7.3-5.4,1.6-2.3,2.4-4.8,2.4-7.6s-.9-5.9-2.6-7.9-4.1-3.6-6.9-4.7c-2.9-1.2-6-2.2-9.4-3-3.4-.8-6.8-1.7-10.2-2.6-3.5-.9-6.6-2.1-9.5-3.6-2.9-1.5-5.2-3.5-6.9-6-1.7-2.5-2.6-5.8-2.6-9.9s1-7,2.9-10.1c1.9-3.1,4.9-5.6,8.9-7.5,4-1.9,9.2-2.9,15.5-2.9s8.5,.6,12.6,1.9c4.1,1.2,7.7,2.9,10.6,5.1l-2.1,4.5c-3.2-2.2-6.7-3.8-10.4-4.9-3.7-1.1-7.3-1.6-10.7-1.6-4.9,0-9,.7-12.2,2.1-3.2,1.4-5.6,3.2-7.2,5.6s-2.3,4.9-2.3,7.8,.9,5.9,2.6,7.9c1.7,2,4,3.6,6.9,4.7,2.9,1.2,6,2.2,9.5,3,3.4,.8,6.9,1.7,10.2,2.6,3.4,.9,6.5,2.1,9.4,3.6,2.9,1.5,5.2,3.5,6.9,5.9,1.8,2.5,2.6,5.7,2.6,9.7s-1,7-3,10.1c-2,3.1-5,5.6-9.1,7.5s-9.3,2.8-15.7,2.8Z"/><path d="M2429.5,1009.8v-72h-27.7v-5.1h61.1v5.1h-27.7v72h-5.6Z"/><path d="M2509.7,1009.8v-77.1h51.5v5.1h-45.9v66.9h47.6v5.1h-53.2Zm5-36.7v-5h41.7v5h-41.7Z"/><path d="M2616.4,1009.8v-77.1h4.7l35.8,61.8h-2.5l35.7-61.8h4.6v77.1c.1,0-5.4,0-5.4,0v-68.6c-.1,0,1.4,0,1.4,0l-33.8,58.3h-2.8l-33.9-58.3h1.7v68.6h-5.5Z"/><path d="M2803.1,1009.8l35.4-77.1h5.6l35.4,77.1h-6.1l-33.5-73.5h2.4l-33.4,73.5h-6.1Zm13-21.7l1.9-4.7h46.1l1.9,4.7h-49.9Z"/><path d="M2926.6,1009.8v-77.1h5.6v77.1h-5.6Z"/><path d="M3024.8,1010.3c-5.7,0-11-1-15.9-2.9-4.9-1.9-9.1-4.7-12.8-8.3-3.6-3.6-6.4-7.7-8.4-12.4-2-4.7-3-9.9-3-15.5s1-10.7,3-15.5,4.8-8.9,8.4-12.4c3.6-3.6,7.9-6.3,12.8-8.3,4.9-1.9,10.2-2.9,15.9-2.9s11,1,15.9,2.9c4.9,1.9,9.1,4.7,12.7,8.2,3.6,3.5,6.4,7.7,8.4,12.4,2,4.7,3,9.9,3,15.6s-1,10.8-3,15.6c-2,4.7-4.8,8.9-8.4,12.4-3.6,3.5-7.8,6.3-12.7,8.2-4.9,1.9-10.2,2.9-15.9,2.9Zm0-5.2c4.9,0,9.5-.8,13.6-2.5,4.2-1.7,7.8-4.1,10.9-7.2,3.1-3.1,5.5-6.7,7.2-10.8,1.7-4.1,2.6-8.6,2.6-13.4s-.9-9.4-2.6-13.5c-1.7-4.1-4.1-7.7-7.2-10.7-3.1-3.1-6.7-5.5-10.9-7.2-4.2-1.7-8.7-2.5-13.6-2.5s-9.5,.8-13.6,2.5c-4.2,1.7-7.8,4.1-11,7.2-3.1,3.1-5.5,6.7-7.3,10.7-1.7,4.1-2.6,8.6-2.6,13.5s.9,9.3,2.6,13.4c1.7,4.1,4.1,7.7,7.3,10.8,3.1,3.1,6.8,5.5,11,7.2,4.2,1.7,8.7,2.5,13.6,2.5Z"/></g></svg>